<svg width="32" height="32" viewBox="0 0 32 32" fill="none" xmlns="http://www.w3.org/2000/svg">
<path fill-rule="evenodd" clip-rule="evenodd" d="M15.9422 0C7.16245 0 0 7.18841 0 16C0 24.8116 7.16245 32 15.9422 32C24.722 32 32 24.8116 32 16C32 7.18841 24.8375 0 15.9422 0ZM30 16C30 23.732 23.732 30 16 30C8.26801 30 2 23.732 2 16C2 8.26801 8.26801 2 16 2C23.732 2 30 8.26801 30 16ZM16.0399 20.8711C18.0913 20.8711 19.171 19.6195 19.171 19.6195C19.7109 18.9937 20.7906 18.8894 21.4384 19.4109C22.0862 19.9324 22.1942 20.9754 21.6543 21.6012C21.6543 21.7055 19.6029 24 16.0399 24C12.6622 24 10.74 21.9381 10.4571 21.6346L10.4571 21.6346C10.4416 21.6179 10.431 21.6066 10.4254 21.6012C9.77755 20.9754 9.88552 19.9324 10.6413 19.4109C11.2891 18.7851 12.3688 18.8894 12.9087 19.6195C12.9293 19.6195 12.9852 19.665 13.0758 19.7387C13.46 20.0514 14.4671 20.8711 16.0399 20.8711ZM12 15C13.1046 15 14 14.1046 14 13C14 11.8954 13.1046 11 12 11C10.8954 11 10 11.8954 10 13C10 14.1046 10.8954 15 12 15ZM22 13C22 14.1046 21.1046 15 20 15C18.8954 15 18 14.1046 18 13C18 11.8954 18.8954 11 20 11C21.1046 11 22 11.8954 22 13Z" fill="url(#paint0_linear)"/>
<defs>
<linearGradient id="paint0_linear" x1="32" y1="32" x2="-6.61616" y2="16.7138" gradientUnits="userSpaceOnUse">
<stop stop-color="#612265"/>
<stop offset="1" stop-color="#2690D8"/>
</linearGradient>
</defs>
</svg>